<?xml version="1.0" encoding="UTF-8"?>
<svg version="1.1" xmlns="http://www.w3.org/2000/svg" width="2000" height="1500">
<path d="M0 0 C660 0 1320 0 2000 0 C2000 495 2000 990 2000 1500 C1340 1500 680 1500 0 1500 C0 1005 0 510 0 0 Z " fill="#FEFEFE" transform="translate(0,0)"/>
<path d="M0 0 C0.72364746 0.21962402 1.44729492 0.43924805 2.19287109 0.66552734 C34.87932498 10.80069507 59.26065718 34.015905 75.08984375 63.875 C76.81579995 67.21963101 78.45250802 70.6018787 80.0546875 74.00732422 C80.95979711 75.91525414 81.89918626 77.80278335 82.84375 79.69140625 C90.48957748 95.47714401 94.29257785 113.61698942 96 131 C96.08733398 131.77424316 96.17466797 132.54848633 96.26464844 133.34619141 C99.502343 162.49089313 99.92104808 193.05738315 95 222 C94.86609863 222.85674316 94.73219727 223.71348633 94.59423828 224.59619141 C89.51954256 256.69902411 75.24141154 286.72292023 55 312 C54.54898926 312.56460937 54.09797852 313.12921875 53.63330078 313.7109375 C37.67282563 333.51424971 16.60262134 348.87255038 -9 353 C-12.1113277 353.25715392 -15.19189681 353.28642117 -18.3125 353.25 C-19.17061279 353.24323242 -20.02872559 353.23646484 -20.9128418 353.22949219 C-40.6212126 352.92079173 -64.78404439 351.77712821 -80 337.625 C-87.90367449 328.89240355 -88.14923544 319.54407476 -88.14044189 308.26031494 C-88.14341302 307.06984676 -88.14638414 305.87937858 -88.1494453 304.65283561 C-88.15660964 301.35642228 -88.15930337 298.06006109 -88.16004276 294.76364374 C-88.16189796 291.20523658 -88.16944759 287.6468406 -88.17617798 284.08843994 C-88.18974228 276.31151387 -88.1957829 268.53459298 -88.20018864 260.75765705 C-88.20295399 255.89942885 -88.20719185 251.04120263 -88.21169281 246.18297577 C-88.22388244 232.72502391 -88.23418272 219.26707363 -88.2375679 205.80911636 C-88.23778747 204.94830022 -88.23800703 204.08748409 -88.23823325 203.20058261 C-88.23845153 202.33774099 -88.23866981 201.47489937 -88.2388947 200.58591104 C-88.23933816 198.83754746 -88.23978473 197.08918389 -88.24023438 195.34082031 C-88.2404558 194.47357691 -88.24067723 193.60633351 -88.24090537 192.71281001 C-88.24485306 178.66169463 -88.26230755 164.61063112 -88.2855939 150.55953577 C-88.30932295 136.12451706 -88.32177044 121.68952437 -88.32293582 107.25448585 C-88.32385165 99.15333463 -88.32958081 91.05225103 -88.34775543 82.95111847 C-88.36317732 76.05283931 -88.36826454 69.15464868 -88.36001733 62.25635555 C-88.35611835 58.73914547 -88.35700345 55.22211354 -88.37107468 51.70492554 C-88.38377874 47.88567069 -88.37792506 44.0668714 -88.36749268 40.24761963 C-88.37554908 39.14468386 -88.38360548 38.04174809 -88.39190602 36.90539002 C-88.32997293 27.19358273 -86.52764019 17.55004167 -80 10 C-59.56782744 -8.33166884 -24.8142384 -7.70820319 0 0 Z " fill="#FEFEFE" transform="translate(1205,545)"/>
<path d="M0 0 C2.09451054 2.08410734 4.14484382 4.19818694 6.171875 6.34765625 C7.038125 7.21390625 7.904375 8.08015625 8.796875 8.97265625 C9.580625 9.75640625 10.364375 10.54015625 11.171875 11.34765625 C11.89890625 12.00507812 11.89890625 12.00507812 12.640625 12.67578125 C38.44697762 36.77794077 52.52412416 75.0590214 60.484375 108.53515625 C60.84837402 110.04674316 60.84837402 110.04674316 61.21972656 111.58886719 C64.74288557 127.161529 65.50386314 142.70749897 65.43261719 158.62548828 C65.42185822 161.47710282 65.43260616 164.32809136 65.4453125 167.1796875 C65.48510552 216.59674758 47.80242176 266.90724666 15.171875 304.34765625 C14.33011719 305.32347656 13.48835938 306.29929687 12.62109375 307.3046875 C-14.07797025 337.67694875 -56.68651111 360.39156301 -97.203125 364.09765625 C-99.74738134 364.21079878 -102.28272121 364.28969325 -104.828125 364.34765625 C-105.74255371 364.37875488 -106.65698242 364.40985352 -107.59912109 364.44189453 C-147.78223723 365.70775493 -183.03932455 355.10857105 -220.1930542 341.23727417 C-225.17036719 339.3790345 -230.15190878 337.53218202 -235.1328125 335.68359375 C-236.61661911 335.13236092 -236.61661911 335.13236092 -238.13040161 334.56999207 C-247.47339511 331.10146247 -256.83438289 327.68343243 -266.203125 324.28515625 C-266.91279419 324.0276358 -267.62246338 323.77011536 -268.3536377 323.50479126 C-272.17783315 322.1173264 -276.00263315 320.73154357 -279.828125 319.34765625 C-279.828125 319.01765625 -279.828125 318.68765625 -279.828125 318.34765625 C-278.93206543 318.19731934 -278.03600586 318.04698242 -277.11279297 317.89208984 C-273.71428074 317.31320074 -270.31926131 316.71852388 -266.92529297 316.11376953 C-265.46998055 315.85762687 -264.013612 315.60739765 -262.55615234 315.36376953 C-245.93004368 312.95749839 -245.93004368 312.95749839 -232.17971706 304.45101738 C-230.11136416 299.70191727 -230.41206778 295.1379692 -230.44044495 290.01174927 C-230.43505941 288.85268723 -230.42967387 287.6936252 -230.42412513 286.49944007 C-230.41229328 283.28609446 -230.41391729 280.07308105 -230.42129195 276.85973239 C-230.42601966 273.39269012 -230.41351724 269.92570363 -230.40327454 266.4586792 C-230.38607287 259.66774999 -230.38524941 252.87691325 -230.39048744 246.08596791 C-230.39452814 240.56601898 -230.39308677 235.04609738 -230.38773918 229.52614975 C-230.38661655 228.34789363 -230.38661655 228.34789363 -230.38547124 227.14583435 C-230.38393976 225.55009413 -230.38240142 223.95435392 -230.38085627 222.35861371 C-230.36712607 207.39155166 -230.37257237 192.42454187 -230.38404148 177.45748101 C-230.39397255 163.7663728 -230.38103633 150.07539976 -230.35710729 136.38431241 C-230.33272095 122.32562196 -230.32310738 108.26699448 -230.32976002 94.20828331 C-230.33325352 86.31567637 -230.33101167 78.42317338 -230.31350899 70.53058243 C-230.29879273 63.81112115 -230.29814383 57.09183698 -230.3155799 50.3723792 C-230.32409751 46.94461527 -230.32622138 43.51716781 -230.31092834 40.08942032 C-230.29777631 36.37182355 -230.30921626 32.65508983 -230.32691956 28.93753052 C-230.31731455 27.85630169 -230.30770954 26.77507286 -230.29781348 25.66107953 C-230.3598468 19.33949162 -231.08101864 15.49989103 -234.828125 10.34765625 C-241.93043426 4.45659353 -252.01065744 3.70691483 -260.828125 2.34765625 C-262.5795847 2.06608282 -264.33088158 1.78349512 -266.08203125 1.5 C-270.661255 0.76363816 -275.24360984 0.05028303 -279.828125 -0.65234375 C-277.54341078 -2.93705797 -275.84509838 -3.55613217 -272.83227539 -4.69262695 C-271.78299362 -5.09140549 -270.73371185 -5.49018402 -269.65263367 -5.90104675 C-268.50527237 -6.33073257 -267.35791107 -6.7604184 -266.17578125 -7.203125 C-264.98503494 -7.65387894 -263.79428864 -8.10463287 -262.56745911 -8.56904602 C-259.34437753 -9.78883236 -256.11874928 -11.00173767 -252.89241791 -12.21289825 C-250.2275067 -13.21393486 -247.56379696 -14.21814648 -244.90008545 -15.22237015 C-239.60248459 -17.21957416 -234.3037313 -19.21367612 -229.00337219 -21.20354843 C-223.08412819 -23.42576578 -217.16877749 -25.65781185 -211.25956726 -27.90660095 C-208.11242348 -29.10329791 -204.96263921 -30.29290634 -201.8119812 -31.48031616 C-200.43501443 -32.00073121 -199.0590863 -32.5239051 -197.68435669 -33.05020142 C-188.17543269 -36.68593577 -178.72123786 -39.33234002 -168.828125 -41.65234375 C-167.40493643 -42.00850695 -165.98224442 -42.36666028 -164.56005859 -42.72680664 C-106.18192469 -57.20485882 -43.64526795 -40.93250958 0 0 Z M-170.828125 -4.65234375 C-172.46515033 -2.54992025 -172.46515033 -2.54992025 -173.578125 -0.33984375 C-173.96484375 0.35753906 -174.3515625 1.05492187 -174.75 1.7734375 C-177.89490238 9.28246165 -178.11448009 16.30039131 -178.08209229 24.33457947 C-178.08521227 25.52746206 -178.08833225 26.72034466 -178.09154677 27.94937521 C-178.09812303 31.24326563 -178.09578435 34.53692654 -178.08957434 37.8308028 C-178.0850375 41.38983932 -178.09203974 44.94885621 -178.09753418 48.50788879 C-178.10641697 55.47352645 -178.10451106 62.43912096 -178.0987089 69.40476029 C-178.09418767 75.06763495 -178.0935815 80.73049754 -178.09575653 86.39337349 C-178.096063 87.20009655 -178.09636946 88.0068196 -178.09668522 88.83798881 C-178.09732468 90.47696896 -178.09797311 92.11594911 -178.0986304 93.75492925 C-178.10433052 109.11597023 -178.09778097 124.47698732 -178.08702967 139.83802439 C-178.07809614 153.00945986 -178.07964517 166.18086008 -178.08886719 179.35229492 C-178.09957836 194.65773571 -178.10377944 209.96315556 -178.09764266 225.26859957 C-178.09700558 226.90177413 -178.09637684 228.53494868 -178.09575653 230.16812325 C-178.09544798 230.97161713 -178.09513943 231.77511102 -178.09482153 232.60295321 C-178.093097 238.25644005 -178.0960045 243.90991358 -178.10071564 249.56339836 C-178.10633395 256.45689197 -178.10478812 263.35034005 -178.09415415 270.24382847 C-178.08890996 273.75886202 -178.08681924 277.27381976 -178.09345245 280.78885269 C-178.09892103 284.60389377 -178.09205745 288.41872186 -178.08209229 292.23374939 C-178.08655373 293.33823376 -178.09101517 294.44271813 -178.09561181 295.58067173 C-178.03685188 307.18662684 -176.28065399 314.50797552 -168.265625 323.00390625 C-152.39020479 337.96343684 -124.12848991 338.13268713 -103.52734375 337.6640625 C-96.62713941 337.32866514 -90.34540267 335.63812147 -83.828125 333.34765625 C-82.80589844 332.99703125 -81.78367187 332.64640625 -80.73046875 332.28515625 C-46.80524134 319.41234269 -23.20418821 286.2462418 -8.828125 254.34765625 C-2.9864177 240.71314385 1.69749331 226.98382779 4.171875 212.34765625 C4.31318848 211.51186035 4.45450195 210.67606445 4.60009766 209.81494141 C5.55910726 204.00599095 6.45087279 198.19119628 7.171875 192.34765625 C7.31761963 191.17396484 7.31761963 191.17396484 7.46630859 189.9765625 C8.45740857 180.75239328 8.41559929 171.48931994 8.421875 162.22265625 C8.42254974 161.32459259 8.42322449 160.42652893 8.42391968 159.50125122 C8.37876259 121.34942335 4.42822845 84.39621331 -13.828125 50.34765625 C-14.18277832 49.6731543 -14.53743164 48.99865234 -14.90283203 48.30371094 C-20.03300583 38.5787661 -25.73916026 29.75698394 -32.828125 21.34765625 C-33.47370361 20.57446045 -33.47370361 20.57446045 -34.13232422 19.78564453 C-48.38693244 2.90949916 -66.05197625 -7.63901946 -86.828125 -14.65234375 C-88.23771484 -15.12994141 -88.23771484 -15.12994141 -89.67578125 -15.6171875 C-115.32062773 -23.7861481 -149.97826228 -23.76961225 -170.828125 -4.65234375 Z " fill="#020D80" transform="translate(1294.828125,560.65234375)"/>
<path d="M0 0 C47.19 0 94.38 0 143 0 C140.00127921 1.9991472 137.45283909 2.94968245 134.0625 4.125 C118.17361402 10.1585302 106.57896432 20.84207136 99 36 C98.90424317 38.68299473 98.86987494 41.33992052 98.87974548 44.02310181 C98.87889106 44.86193889 98.87803663 45.70077597 98.87715632 46.56503236 C98.87550173 49.3918463 98.88102256 52.21860164 98.88647461 55.04541016 C98.88675651 57.0653839 98.88659869 59.08535774 98.8860321 61.10533142 C98.88574425 66.60298045 98.89163907 72.10060783 98.89860606 77.59825182 C98.90484156 83.33847984 98.90544356 89.07870832 98.90663147 94.81893921 C98.9097442 105.69512097 98.91795682 116.57129272 98.92798096 127.44747007 C98.93914389 139.82696519 98.944653 152.20646078 98.94967639 164.58595967 C98.96013947 190.057312 98.9777378 215.52865544 99 241 C99.75309448 240.04013184 100.50618896 239.08026367 101.28210449 238.09130859 C102.28115303 236.81867266 103.28021802 235.54604964 104.27929688 234.2734375 C104.7743573 233.64236084 105.26941772 233.01128418 105.77947998 232.36108398 C109.30685178 227.86890457 112.8776898 223.41604351 116.5 219 C120.55097647 214.03863761 124.55807175 209.04843443 128.5 204 C132.9820011 198.25989332 137.55956557 192.60306754 142.1640625 186.9609375 C145.65530083 182.67548382 149.09818888 178.35670547 152.5 174 C156.9820011 168.25989332 161.55956557 162.60306754 166.1640625 156.9609375 C169.65530083 152.67548382 173.09818888 148.35670547 176.5 144 C180.97911268 138.26359254 185.55344678 132.61017959 190.15527344 126.97192383 C193.73384318 122.57960734 197.26132067 118.15148256 200.75 113.6875 C204.62693327 108.72850347 208.56423009 103.82702555 212.5625 98.96484375 C220.08404499 89.81604143 227.54601604 80.6248003 234.83544922 71.28979492 C238.33732112 66.81602394 241.9080745 62.40167813 245.5 58 C250.60632337 51.73902598 255.65807192 45.44002228 260.61328125 39.05859375 C262.04718414 37.22103899 263.49783227 35.39612062 264.98046875 33.59765625 C267.42682131 30.57022232 268.96152995 28.09967241 270.375 24.4375 C269.97371386 20.75904368 269.72014281 20.10157703 267.25 17.5625 C256.60414994 9.25126618 241.66353073 5.29692397 229 1 C229 0.67 229 0.34 229 0 C267.61 0 306.22 0 346 0 C343.15005944 2.13745542 340.35516274 4.04423188 337.33251953 5.90258789 C319.2468495 17.11570331 303.58269989 32.41916544 290.78515625 49.35546875 C287.58522871 53.58966903 284.20012395 57.66551642 280.8125 61.75 C276.53865519 66.91601063 272.29321233 72.09886191 268.12109375 77.34765625 C265.26804033 80.91528658 262.38349326 84.45695613 259.5 88 C255.35774334 93.09080233 251.23505026 98.1956001 247.14453125 103.328125 C244.34405287 106.8172456 241.51428178 110.28218102 238.6875 113.75 C234.52751236 118.85380506 230.42027495 123.992377 226.375 129.1875 C222.4113986 134.27363229 218.31009715 139.21634116 214.11791992 144.11499023 C210.39953824 148.47953203 206.85494744 152.96238696 203.3359375 157.48828125 C199.63841255 162.22736253 195.83494218 166.87167526 192 171.5 C187.76349836 176.61469611 183.57913095 181.75886142 179.5 187 C175.42086264 192.24114682 171.23626197 197.38509743 167 202.5 C162.52092881 207.91047257 158.08936451 213.35164222 153.75 218.875 C153.29625 219.45185547 152.8425 220.02871094 152.375 220.62304688 C150.48942078 223.03530794 148.69950857 225.45073715 147 228 C147.67546875 227.79503906 148.3509375 227.59007812 149.046875 227.37890625 C149.93890625 227.10949219 150.8309375 226.84007812 151.75 226.5625 C152.63171875 226.29566406 153.5134375 226.02882813 154.421875 225.75390625 C155.27265625 225.50511719 156.1234375 225.25632812 157 225 C157.59868896 224.82364014 158.19737793 224.64728027 158.81420898 224.46557617 C181.28313864 219.67966655 206.92588297 225.95768433 226 238 C235.70002352 244.86714203 244.23743215 252.94173202 250.796875 262.8671875 C251.44520294 263.84600136 251.44520294 263.84600136 252.10662842 264.84458923 C256.65520857 271.83181878 260.49873155 279.1253909 264.25 286.5625 C264.98245503 287.99933365 265.71504246 289.43609982 266.44775391 290.87280273 C274.79170308 307.30912988 282.47438414 324.04246706 290.1015625 340.8203125 C290.59221191 341.89724365 291.08286133 342.9741748 291.58837891 344.08374023 C292.48852885 346.06291806 293.38448455 348.0440126 294.27490234 350.02758789 C302.55627977 368.8377987 302.55627977 368.8377987 318.26953125 381.15234375 C327.41730057 383.99220919 336.49260217 381.90692998 345 378 C351.59915459 374.20941418 357.0940065 369.22940646 362.6640625 364.08984375 C370.58878505 357 370.58878505 357 373 357 C372.59715839 378.38722737 363.81335397 397.0264791 348.8125 412.21484375 C337.01716405 423.18871881 323.42319093 430.06700587 307.1875 430.5625 C300.48655184 430.30206399 295.00609121 428.94760476 289 426 C288.18273437 425.59910156 287.36546875 425.19820312 286.5234375 424.78515625 C273.66582027 417.74408015 265.1637241 407.54788576 258 395 C257.38439209 393.9473999 257.38439209 393.9473999 256.75634766 392.87353516 C249.46574684 380.36636014 243.3432127 367.38836209 237.328125 354.23046875 C233.58650387 346.05583999 229.66927737 337.97004766 225.73925781 329.88476562 C222.6307227 323.46459692 219.63886605 317.00726814 216.73876953 310.49047852 C207.34020503 289.45054849 195.523358 264.75167846 172.78515625 255.91015625 C162.16824811 251.98251904 151.30006252 248.26434266 140 247 C139.28408691 246.89220215 138.56817383 246.7844043 137.83056641 246.67333984 C134.37393371 246.35618413 132.0073044 246.25375024 129.14794922 248.37207031 C127.31586099 250.36755958 125.71711564 252.43335952 124.125 254.625 C123.53130615 255.39392578 122.9376123 256.16285156 122.32592773 256.95507812 C121.11223225 258.53062173 119.90992093 260.11500147 118.71923828 261.70800781 C116.67533872 264.43282023 114.56402973 267.09842927 112.44287109 269.76318359 C110.75308363 271.88931518 109.07250556 274.02003146 107.44801331 276.19657898 C106 278 106 278 104.24775696 279.71012878 C97.50749262 286.8382389 97.97500308 294.43700133 98.0703125 303.64453125 C98.06558643 305.26202608 98.05878394 306.87951603 98.05001831 308.49699402 C98.03973876 311.8771425 98.05455621 315.25599005 98.08740234 318.63598633 C98.12719266 322.93689356 98.10436415 327.23473353 98.0623951 331.53552723 C98.03690708 334.87406352 98.04523885 338.21189179 98.06328964 341.55045128 C98.06791146 343.13424747 98.06239927 344.71811105 98.04593277 346.30182838 C97.94707593 358.48411068 100.80565619 366.37679139 108.4140625 376.078125 C119.36131757 386.83196567 132.07683582 393.68374129 147 397 C147 397.33 147 397.66 147 398 C97.5 398 48 398 -3 398 C-0.38245702 395.38245702 2.48398624 394.83934645 5.9375 393.8125 C21.43659553 388.88744993 33.42526473 378.73777215 42 365 C42.51729905 364.24237682 43.03459811 363.48475365 43.56757289 362.70417219 C45.18818489 359.64473979 45.38018501 357.81333136 45.39148998 354.3738699 C45.40239672 353.24617827 45.41330346 352.11848664 45.4245407 350.95662254 C45.42125913 349.72259589 45.41797757 348.48856923 45.41459656 347.21714783 C45.42280436 345.90235508 45.43101216 344.58756233 45.43946868 343.23292738 C45.46170645 339.58464054 45.46517099 335.93654056 45.46546924 332.28819478 C45.46897012 328.35273144 45.48958566 324.41735124 45.50779724 320.48193359 C45.54422369 311.87633147 45.55817535 303.27078037 45.56763434 294.66511226 C45.57365602 289.2894288 45.58441673 283.9137615 45.59613991 278.53808784 C45.62790014 263.64845806 45.65460165 248.75884265 45.66089153 233.86917782 C45.66129867 232.91633373 45.6617058 231.96348965 45.66212528 230.9817715 C45.66293297 229.05018397 45.66373869 227.11859644 45.66454246 225.18700891 C45.66494804 224.22818904 45.66535362 223.26936916 45.66577148 222.28149414 C45.66617346 221.3215008 45.66657544 220.36150746 45.6669896 219.37242342 C45.67447539 203.82546125 45.71893252 188.27884602 45.7796289 172.73200922 C45.84147382 156.76244089 45.87325205 140.79304527 45.87471896 124.82335478 C45.87621869 115.86012878 45.8904001 106.89733028 45.93753624 97.93421745 C45.97751696 90.29984949 45.98981366 82.66605579 45.96655061 75.03160798 C45.95549861 71.13912446 45.95714797 67.24778224 45.99401855 63.35543251 C46.02752111 59.78486651 46.02340161 56.21630364 45.990553 52.64574976 C45.98258308 50.75695123 46.01368956 48.86810926 46.04663676 46.9795813 C45.90259512 37.69510443 42.7379627 32.16413735 37 25 C36.31588773 24.1382414 35.63177546 23.2764828 34.92693251 22.3886103 C25.92253556 11.38949088 13.347878 5.25613475 0 1 C0 0.67 0 0.34 0 0 Z " fill="#020D80" transform="translate(625,521)"/>
<path d="M0 0 C6.34202006 -1.08490734 12.76787261 -2.04205334 19 0 C24.21820696 4.04257342 27.38396744 10.08186979 30.64355469 15.71337891 C32.47903348 18.80752836 34.55708182 21.58519921 36.75 24.4375 C37.46027344 25.37722656 38.17054688 26.31695313 38.90234375 27.28515625 C42.50086216 31.94245661 46.219815 36.48934447 50 41 C50.43650879 41.52287598 50.87301758 42.04575195 51.32275391 42.58447266 C65.65416098 59.70633359 80.95238805 76.53892227 98 91 C99.11073263 91.97240976 100.21995898 92.94654131 101.328125 93.921875 C140.31317279 128.16113956 184.95762659 156.32845289 233 176 C234.03801758 176.42619629 235.07603516 176.85239258 236.14550781 177.29150391 C260.41425368 187.15651396 285.2463836 194.90918209 310.87646484 200.33691406 C313.92849429 200.98482027 316.97375866 201.65931994 320.01953125 202.3359375 C331.98754376 204.92697051 343.97645892 206.78058327 356.125 208.25 C357.14994064 208.37462616 357.14994064 208.37462616 358.19558716 208.50177002 C375.03545461 210.52297065 391.65804208 211.18654602 408.6027832 211.18530273 C411.90003656 211.18747532 415.19694669 211.20565574 418.49414062 211.22460938 C433.09733328 211.26324829 447.47172801 210.43605817 462 209 C463.33020353 208.87704517 464.6605121 208.75521632 465.9909668 208.63500977 C482.54366405 207.09705023 498.75372721 204.50444212 515 201 C516.0120752 200.78504883 517.02415039 200.57009766 518.06689453 200.34863281 C566.04399362 190.00654185 612.93068554 171.21685112 655 146 C655.89750977 145.46665039 656.79501953 144.93330078 657.71972656 144.38378906 C670.29668825 136.88087211 682.26446689 128.75311943 694 120 C695.13231613 119.16599233 696.2650913 118.33260735 697.3984375 117.5 C704.10438807 112.53518313 710.60544937 107.35899587 717 102 C717.52287598 101.56349121 718.04575195 101.12698242 718.58447266 100.67724609 C735.01071119 86.92809161 751.46442123 72.2962338 765.34375 55.93359375 C767.25985577 53.69663065 769.25512856 51.54196422 771.25 49.375 C776.34469623 43.72672047 781.00263183 37.77407273 785.64453125 31.75390625 C786.92216343 30.10071649 788.20934159 28.45552864 789.5 26.8125 C790.304375 25.78125 791.10875 24.75 791.9375 23.6875 C792.55238281 22.91889648 792.55238281 22.91889648 793.1796875 22.13476562 C795.62443204 19.01809596 797.68796442 15.86442823 799.625 12.40625 C806.37937108 0.82051983 806.37937108 0.82051983 811.38916016 -0.74804688 C817.02047989 -1.46320226 822.42030023 -0.89298542 828 0 C826.41846935 4.64685691 823.91422383 8.32817293 821.125 12.3125 C820.40123169 13.35494873 820.40123169 13.35494873 819.6628418 14.41845703 C806.01588025 33.9354334 791.052246 52.41636426 775 70 C773.75669922 71.38251953 773.75669922 71.38251953 772.48828125 72.79296875 C763.46435193 82.76539867 754.18346329 92.66822855 743.91015625 101.37109375 C741.6219606 103.32237716 739.4090094 105.34817687 737.1875 107.375 C732.45655599 111.63356534 727.61544355 115.71751444 722.63916016 119.68652344 C721.50145898 120.59817556 720.36864268 121.51594415 719.23974609 122.43847656 C699.6363117 138.44024343 678.13543496 152.74496932 656 165 C655.13874512 165.48452637 654.27749023 165.96905273 653.39013672 166.46826172 C628.79596854 180.28154086 603.46762352 191.36351763 577 201 C575.2120694 201.66490713 573.42429272 202.33022841 571.63671875 202.99609375 C543.4560106 213.34371947 513.89759517 219.43220991 484.25 223.75 C483.56865997 223.85105042 482.88731995 223.95210083 482.18533325 224.05621338 C458.92987561 227.46693408 435.67061297 228.40961776 412.1875 228.375 C411.52413006 228.3749081 410.86076012 228.37481621 410.17728806 228.37472153 C388.19840236 228.37080088 366.72590051 227.39682075 345 224 C343.67939916 223.80414835 342.35859582 223.60965744 341.03759766 223.41650391 C257.01365434 211.00116504 176.07117122 176.62540066 110 123 C109.07316406 122.25492188 108.14632812 121.50984375 107.19140625 120.7421875 C104.44258327 118.51599995 101.71674947 116.26521216 99 114 C98.4853418 113.57170898 97.97068359 113.14341797 97.44042969 112.70214844 C81.00702131 98.97657333 64.60384932 84.30915114 50.69921875 67.98046875 C48.71969568 65.67330048 46.6735788 63.43353218 44.625 61.1875 C30.49243368 45.48464854 18.00008203 28.36152218 6 11 C4.96939453 9.51693359 4.96939453 9.51693359 3.91796875 8.00390625 C0 2.26917447 0 2.26917447 0 0 Z " fill="#050F81" transform="translate(586,1012)"/>
<path d="M0 0 C1.24619614 -0.00970322 2.49239227 -0.01940643 3.77635193 -0.02940369 C7.80666719 -0.05428844 11.83681059 -0.06758694 15.8671875 -0.07421875 C16.55404003 -0.07566391 17.24089256 -0.07710907 17.94855881 -0.07859802 C48.55753747 -0.13061263 79.31623731 0.93216629 109.28808594 7.70410156 C112.0585002 8.30713244 114.83791934 8.83496285 117.625 9.35546875 C192.11182585 23.35307129 263.53299258 57.06478898 322.7421875 104.23828125 C323.63550781 104.94984375 324.52882813 105.66140625 325.44921875 106.39453125 C345.72452139 122.78101303 366.16645891 140.38218946 383.078125 160.29296875 C385.04357764 162.59061057 387.07948621 164.81701248 389.1171875 167.05078125 C403.24975382 182.75363271 415.74210547 199.87675907 427.7421875 217.23828125 C428.42925781 218.22699219 429.11632813 219.21570313 429.82421875 220.234375 C433.7421875 225.96910678 433.7421875 225.96910678 433.7421875 228.23828125 C427.40016744 229.32318859 420.97431489 230.28033459 414.7421875 228.23828125 C409.52398054 224.19570783 406.35822006 218.15641146 403.09863281 212.52490234 C401.26315402 209.43075289 399.18510568 206.65308204 396.9921875 203.80078125 C396.28191406 202.86105469 395.57164062 201.92132813 394.83984375 200.953125 C391.24132534 196.29582464 387.5223725 191.74893678 383.7421875 187.23828125 C383.08742432 186.45396729 383.08742432 186.45396729 382.41943359 185.65380859 C368.46304787 168.97998903 353.59728581 152.18054126 336.9609375 138.1171875 C335.12614427 136.56342774 333.32160453 134.98618892 331.5234375 133.390625 C322.26416664 125.20682531 312.66404233 117.60079617 302.7421875 110.23828125 C302.01628418 109.69671387 301.29038086 109.15514648 300.54248047 108.59716797 C282.77897184 95.38538676 264.07707078 83.99234333 244.7421875 73.23828125 C244.03449219 72.84044434 243.32679688 72.44260742 242.59765625 72.03271484 C221.70565605 60.33420891 199.457578 51.38803508 176.93310547 43.37792969 C174.74541343 42.59658719 172.56231965 41.80228415 170.38330078 40.99707031 C121.28998668 22.99780255 68.30282041 16.90589946 16.3046875 16.86328125 C15.27903687 16.86119659 14.25338623 16.85911194 13.19665527 16.85696411 C-0.27448552 16.86008507 -13.55256608 17.5874417 -26.94882202 18.996521 C-29.96515284 19.31234253 -32.98464758 19.59263226 -36.00390625 19.87890625 C-114.67832869 28.04082292 -192.59656914 58.31911813 -256.2578125 105.23828125 C-257.32 106.016875 -258.3821875 106.79546875 -259.4765625 107.59765625 C-262.42448837 109.78532756 -265.3465409 112.00208712 -268.2578125 114.23828125 C-268.82097168 114.66995605 -269.38413086 115.10163086 -269.96435547 115.54638672 C-277.69042041 121.48481098 -285.07903024 127.64087924 -292.2578125 134.23828125 C-293.54563431 135.36768054 -294.83716672 136.49286625 -296.1328125 137.61328125 C-308.79613134 148.6842067 -321.55360353 160.1717451 -332.4140625 173.0546875 C-333.95350342 174.87788131 -335.51798732 176.66853398 -337.1015625 178.453125 C-350.92870576 194.0954226 -363.67514307 210.8642771 -375.2578125 228.23828125 C-377.22900391 228.57885742 -377.22900391 228.57885742 -379.609375 228.53125 C-380.46015625 228.52158203 -381.3109375 228.51191406 -382.1875 228.50195312 C-383.07695313 228.47681641 -383.96640625 228.45167969 -384.8828125 228.42578125 C-385.78 228.41224609 -386.6771875 228.39871094 -387.6015625 228.38476562 C-389.82091039 228.3493505 -392.03906438 228.29996586 -394.2578125 228.23828125 C-392.67628185 223.59142434 -390.17203633 219.91010832 -387.3828125 215.92578125 C-386.90030029 215.23081543 -386.41778809 214.53584961 -385.9206543 213.81982422 C-378.11099189 202.65096468 -369.86709829 191.8018221 -361.2578125 181.23828125 C-360.57589844 180.38234375 -359.89398437 179.52640625 -359.19140625 178.64453125 C-354.09455001 172.29853493 -348.71053131 166.29729903 -343.15625 160.35546875 C-340.68496262 157.71053203 -338.27726129 155.01567671 -335.8828125 152.30078125 C-328.18740945 143.72229916 -320.02731662 135.37158283 -311.22265625 127.92578125 C-308.7982352 125.8435747 -306.47431218 123.66325918 -304.1328125 121.48828125 C-298.91350795 116.72908068 -293.4584365 112.36638059 -287.8671875 108.0546875 C-285.564323 106.27481113 -283.30733329 104.45856558 -281.0859375 102.578125 C-209.42642601 42.39445071 -114.60071603 10.1050961 0 0 Z " fill="#040F81" transform="translate(980.2578125,259.76171875)"/>
</svg>
